<svg width="30" height="30" viewBox="0 0 30 30" fill="none" xmlns="http://www.w3.org/2000/svg">
<path d="M24.7223 27.4938V23.0562C24.7223 21.4675 25.1386 20.6413 25.9561 19.26C26.9527 17.5727 27.4852 15.6518 27.4997 13.6922C27.5142 11.7325 27.0101 9.80397 26.0386 8.10208C25.067 6.4002 23.6627 4.98556 21.9679 4.0017C20.2731 3.01783 18.3482 2.49975 16.3886 2.5C13.4422 2.50033 10.6166 3.67074 8.53297 5.75389C6.44935 7.83704 5.27831 10.6624 5.27731 13.6088C5.27731 14.3338 5.27731 14.6962 5.24731 14.8987C5.17481 15.3837 4.94731 15.8013 4.72606 16.2338L2.49981 20.5512L4.24981 21.4263C4.75606 21.6788 5.00981 21.805 5.18606 22.0388C5.36231 22.2725 5.41231 22.5375 5.51106 23.0638L5.52106 23.1163C5.74981 24.3263 6.00106 25.6612 6.70856 26.5037C6.95856 26.8 7.26857 27.0413 7.61732 27.2125C8.19357 27.4938 8.90231 27.4938 10.3198 27.4938C10.9761 27.4938 11.6336 27.5088 12.2898 27.4938C13.8436 27.455 14.9998 26.1475 14.9998 24.6312" stroke="black" stroke-width="1.875" stroke-linecap="round" stroke-linejoin="round"/>
<path d="M12.0153 13.1651C12.5478 13.1651 13.034 12.9626 13.4028 12.6314M12.0153 13.1651C12.0153 14.5976 12.8453 15.9576 14.4428 15.9576C16.0403 15.9576 16.8703 17.3176 16.8703 18.7501M12.0153 13.1651C9.32776 13.1651 9.32776 8.97639 12.0153 8.97639C12.2603 8.97722 12.4923 9.0168 12.7115 9.09514C12.5803 5.97264 17.0815 5.12514 18.1015 8.05014M18.1015 8.05014C17.3578 8.55139 16.8703 9.40389 16.8703 10.3714M18.1015 8.05014C20.4165 6.48764 23.5015 9.29139 22.034 11.7914C24.4965 12.1601 24.234 15.9576 21.7253 15.9576C21.3908 15.9575 21.0613 15.8765 20.7648 15.7215C20.4684 15.5666 20.2138 15.3422 20.0228 15.0676" stroke="black" stroke-width="1.875" stroke-linecap="round" stroke-linejoin="round"/>
</svg>
