<svg width="18" height="18" viewBox="0 0 18 18" fill="none" xmlns="http://www.w3.org/2000/svg">
  <path d="M12.75 4.5C12.75 5.12132 12.2513 5.625 11.625 5.625C11.0037 5.625 10.5 5.12132 10.5 4.5C10.5 3.87868 11.0037 3.375 11.625 3.375C12.2513 3.375 12.75 3.87868 12.75 4.5Z" fill="black"/>
  <path fill-rule="evenodd" clip-rule="evenodd" d="M9 12C10.6569 12 12 10.6569 12 9C12 7.34315 10.6569 6 9 6C7.34315 6 6 7.34315 6 9C6 10.6569 7.34315 12 9 12ZM9 10.5C9.82843 10.5 10.5 9.82843 10.5 9C10.5 8.17157 9.82843 7.5 9 7.5C8.17157 7.5 7.5 8.17157 7.5 9C7.5 9.82843 8.17157 10.5 9 10.5Z" fill="black"/>
  <path fill-rule="evenodd" clip-rule="evenodd" d="M5.25 1.5C3.17893 1.5 1.5 3.17893 1.5 5.25V12.75C1.5 14.8211 3.17893 16.5 5.25 16.5H12.75C14.8211 16.5 16.5 14.8211 16.5 12.75V5.25C16.5 3.17893 14.8211 1.5 12.75 1.5H5.25ZM3 5.25C3 4.00736 4.00736 3 5.25 3H12.75C13.9926 3 15 4.00736 15 5.25V12.75C15 13.9926 13.9926 15 12.75 15H5.25C4.00736 15 3 13.9926 3 12.75V5.25Z" fill="black"/>
</svg> 