<svg width="30" height="30" viewBox="0 0 30 30" fill="none" xmlns="http://www.w3.org/2000/svg">
<g opacity="0.2">
<path fill-rule="evenodd" clip-rule="evenodd" d="M11.625 9.9C11.625 6.975 13.92 4.5 16.875 4.5C19.83 4.5 22.125 6.975 22.125 9.9C22.125 12.825 19.83 15.3 16.875 15.3C13.92 15.3 11.625 12.825 11.625 9.9Z" fill="black"/>
<path fill-rule="evenodd" clip-rule="evenodd" d="M16.896 13.6006C12.0585 13.6006 7.875 17.3071 7.875 22.2496L7.878 25.5016C7.8784 25.8986 8.03619 26.2793 8.31681 26.5602C8.59742 26.8411 8.97795 26.9993 9.375 27.0001H24.375C24.7728 27.0001 25.1544 26.8421 25.4357 26.5607C25.717 26.2794 25.875 25.8979 25.875 25.5001V22.2496C25.875 17.3176 21.7425 13.6006 16.896 13.6006Z" fill="black"/>
</g>
<path d="M14.25 12.75C16.7353 12.75 18.75 10.7353 18.75 8.25C18.75 5.76472 16.7353 3.75 14.25 3.75C11.7647 3.75 9.75 5.76472 9.75 8.25C9.75 10.7353 11.7647 12.75 14.25 12.75Z" stroke="black" stroke-width="1.4" stroke-linecap="round"/>
<path d="M22.5 24.75V21.75C22.5 17.103 18.7575 12.75 14.25 12.75C9.7425 12.75 6 17.103 6 21.75V24.75" stroke="black" stroke-width="1.4" stroke-linecap="round"/>
</svg>
